<svg xmlns="http://www.w3.org/2000/svg" xmlns:xlink="http://www.w3.org/1999/xlink" viewBox="0,0,256,256" width="32px" height="32px"><g fill="#3f3f3f" fill-rule="nonzero" stroke="none" stroke-width="1" stroke-linecap="butt" stroke-linejoin="miter" stroke-miterlimit="10" stroke-dasharray="" stroke-dashoffset="0" font-family="none" font-weight="none" font-size="none" text-anchor="none" style="mix-blend-mode: normal"><g transform="scale(8,8)"><path d="M21.30078,6c-0.157,0 -0.30078,0.12578 -0.30078,0.30078v5.49609l-1.24609,-0.72656c-0.078,-0.046 -0.16591,-0.06836 -0.25391,-0.06836c-0.088,0 -0.17591,0.02236 -0.25391,0.06836l-2.99414,1.74609c-0.156,0.09 -0.25195,0.25655 -0.25195,0.43555v3.49609c0,0.18 0.09595,0.34555 0.25195,0.43555l2.99414,1.74609c0.078,0.046 0.16591,0.06836 0.25391,0.06836c0.088,0 0.17591,-0.02236 0.25391,-0.06836l2.99414,-1.74609c0.156,-0.09 0.25195,-0.25655 0.25195,-0.43555v-1.74805v-1.74805v-6.02148c0,-0.178 -0.09505,-0.34164 -0.24805,-0.43164l-1.30273,-0.75781c-0.049,-0.028 -0.09844,-0.04102 -0.14844,-0.04102zM11.5,11.00195c-0.08775,0 -0.17541,0.02286 -0.25391,0.06836l-2.99414,1.74609c-0.156,0.09 -0.25195,0.25655 -0.25195,0.43555v3.49609c0,0.18 0.09595,0.34555 0.25195,0.43555l2.99414,1.74609c0.157,0.091 0.35081,0.091 0.50781,0l2.99414,-1.74609c0.156,-0.09 0.25195,-0.25655 0.25195,-0.43555v-3.49609c0,-0.18 -0.09595,-0.34555 -0.25195,-0.43555l-2.99414,-1.74609c-0.0785,-0.0455 -0.16616,-0.06836 -0.25391,-0.06836zM27.5,11.00195c-0.088,0 -0.17591,0.02236 -0.25391,0.06836l-2.99414,1.74609c-0.156,0.09 -0.25195,0.25655 -0.25195,0.43555v3.49609c0,0.18 0.09595,0.34555 0.25195,0.43555l2.9043,1.75586c0.156,0.095 0.35177,0.09591 0.50977,0.00391l1.42773,-0.83008c0.148,-0.085 0.149,-0.29972 0,-0.38672l-3.09375,-1.82227v-1.79492l1.5,-0.87305l1.5,0.87305v1.25c0,0.167 0.14037,0.19272 0.23438,0.13672c0.378,-0.222 1.51758,-0.88281 1.51758,-0.88281c0.153,-0.089 0.24805,-0.25364 0.24805,-0.43164v-0.92969c0,-0.18 -0.09595,-0.34555 -0.25195,-0.43555l-2.99414,-1.74609c-0.079,-0.046 -0.16591,-0.06836 -0.25391,-0.06836zM3.5,11.00391c-0.088,0 -0.17591,0.02236 -0.25391,0.06836l-2.99414,1.74414c-0.156,0.091 -0.25195,0.2575 -0.25195,0.4375v4.46289c0,0.218 0.23583,0.35314 0.42383,0.24414l1.32812,-0.77344c0.153,-0.09 0.24805,-0.25364 0.24805,-0.43164v-2.64258l1.5,-0.875l1.5,0.875v2.64258c0,0.178 0.09505,0.34164 0.24805,0.43164l1.32813,0.77344c0.188,0.11 0.42383,-0.02614 0.42383,-0.24414v-4.46289c0,-0.18 -0.09595,-0.3465 -0.25195,-0.4375l-2.99414,-1.74414c-0.078,-0.046 -0.16591,-0.06836 -0.25391,-0.06836zM19.5,13.23633l1.5,0.875v0.88867v0.88867l-1.5,0.875l-1.5,-0.875v-1.77734zM27.5,14.00391l-0.85742,0.5v0.99805l0.85742,0.49805l0.85742,-0.49805v-0.99805zM15.40625,17.99805c-0.10287,0 -0.20688,0.02517 -0.29687,0.07617l-2.8125,1.625c-0.185,0.102 -0.29687,0.30272 -0.29687,0.51172v3.24609c0,0.209 0.11688,0.40572 0.29688,0.51172l0.74023,0.42188c0.355,0.175 0.48549,0.17578 0.64649,0.17578c0.53,0 0.83203,-0.31695 0.83203,-0.87695v-3.20703c0,-0.049 -0.03803,-0.08398 -0.08203,-0.08398h-0.35547c-0.049,0 -0.08398,0.03998 -0.08398,0.08398v3.20703c0,0.243 -0.25678,0.4922 -0.67578,0.2832l-0.76953,-0.44336c-0.025,-0.015 -0.04297,-0.04522 -0.04297,-0.07422v-3.24609c0,-0.029 0.01397,-0.06312 0.04297,-0.07812l2.8125,-1.62109c0.03,-0.015 0.06389,-0.015 0.08789,0l2.81445,1.62109c0.029,0.015 0.04297,0.04412 0.04297,0.07813v3.24609c0,0.034 -0.01897,0.06312 -0.04297,0.07813l-2.81445,1.62695c-0.025,0.015 -0.06389,0.015 -0.08789,0l-0.71875,-0.42773c-0.019,-0.01 -0.04936,-0.01586 -0.06836,-0.00586c-0.199,0.117 -0.23883,0.13231 -0.42383,0.19531c-0.049,0.015 -0.11561,0.04505 0.02539,0.12305l0.93359,0.55469c0.093,0.049 0.19487,0.07813 0.29688,0.07813c0.107,0 0.21097,-0.02903 0.29297,-0.08203l2.8125,-1.62695c0.185,-0.102 0.29688,-0.30272 0.29688,-0.51172v-3.24609c0,-0.209 -0.11688,-0.40472 -0.29687,-0.51172l-2.8125,-1.625c-0.0875,-0.051 -0.19009,-0.07617 -0.29297,-0.07617zM19.79297,19.49609c-0.287,0 -0.53906,0.23206 -0.53906,0.53906c0,0.297 0.24206,0.54102 0.53906,0.54102c0.297,0 0.53906,-0.24402 0.53906,-0.54102c0,-0.307 -0.24706,-0.54406 -0.53906,-0.53906zM19.78711,19.58203c0.254,0 0.45898,0.20012 0.45898,0.45313c0,0.248 -0.20598,0.45298 -0.45898,0.45898c-0.249,0 -0.45117,-0.20598 -0.45117,-0.45898c0,-0.253 0.20317,-0.45312 0.45117,-0.45312zM19.58984,19.72852v0.60742h0.11523v-0.24219h0.10742c0.044,0 0.05445,0.01873 0.06445,0.05273c0,0.005 0.01844,0.16241 0.02344,0.19141h0.125c-0.014,-0.029 -0.0243,-0.11211 -0.0293,-0.16211c-0.014,-0.078 -0.01856,-0.13172 -0.10156,-0.13672c0.044,-0.015 0.11719,-0.03839 0.11719,-0.15039c0,-0.161 -0.13989,-0.16016 -0.21289,-0.16016zM19.70508,19.82617h0.09766c0.03,0 0.08789,-0.00097 0.08789,0.08203c0,0.034 -0.01475,0.08889 -0.09375,0.08789h-0.0918zM16.16016,20.32227c-0.803,0 -1.2793,0.34225 -1.2793,0.90625c0,0.618 0.47709,0.78333 1.24609,0.86133c0.92,0.092 0.99219,0.2243 0.99219,0.4043c0,0.316 -0.25366,0.44727 -0.84766,0.44727c-0.745,0 -0.90889,-0.18469 -0.96289,-0.55469c-0.005,-0.039 -0.03998,-0.06836 -0.08399,-0.06836h-0.36523c-0.044,0 -0.08203,0.03498 -0.08203,0.08398c0,0.472 0.25728,1.03711 1.48828,1.03711c0.903,-0.001 1.41406,-0.35084 1.41406,-0.96484c0,-0.608 -0.40939,-0.76972 -1.27539,-0.88672c-0.876,-0.117 -0.96289,-0.17586 -0.96289,-0.38086c0,-0.17 0.07175,-0.39258 0.71875,-0.39258c0.579,0 0.79481,0.12663 0.88281,0.51563c0.01,0.039 0.03717,0.0625 0.07617,0.0625h0.36523c0.024,0 0.04459,-0.00944 0.05859,-0.02344c0.015,-0.019 0.02453,-0.0385 0.01953,-0.0625c-0.058,-0.672 -0.50134,-0.98437 -1.40234,-0.98437z"></path></g></g></svg>